<?xml version="1.0"?><svg fill="#000000" xmlns="http://www.w3.org/2000/svg"  viewBox="0 0 24 24" width="24px" height="24px">    <path d="M 11 2 L 11 4 L 8 4 L 12 8 L 16 4 L 13 4 L 13 2 L 11 2 z M 4 4 C 2.895 4 2 4.895 2 6 L 2 18 C 2 19.105 2.895 20 4 20 L 20 20 C 21.105 20 22 19.105 22 18 L 22 6 C 22 4.895 21.105 4 20 4 L 18.828125 4 L 17.414062 5.4140625 L 16.828125 6 L 20 6 L 20 8.0019531 L 12 13 L 4 8.0019531 L 4 6 L 7.171875 6 L 6.5859375 5.4140625 L 5.171875 4 L 4 4 z M 4 10.001953 L 12 15 L 20 10.001953 L 20 18 L 4 18 L 4 10.001953 z"/></svg>